<?xml version="1.0" encoding="UTF-8" standalone="yes"?>
<!DOCTYPE svg PUBLIC "-//W3C//DTD SVG 1.0//EN" "http://www.w3.org/TR/2001/REC-SVG-20010904/DTD/svg10.dtd">
<svg height="200000" width="210" xmlns="http://www.w3.org/2000/svg" xmlns:svg="http://www.w3.org/2000/svg" xmlns:xlink="http://www.w3.org/1999/xlink">
	<marker id="arrow_whiteArrow" markerHeight="4" markerWidth="4" orient="auto" refX="2" refY="2">
		<path d="M0,0 L4,2 0,4" id="arrow_whiteArrow_path" style="fill-opacity: 0; stroke: rgb(255,255,255); stroke-width: 0.5" />
	</marker>
	<line style="fill-opacity: 1; stroke: rgb(0,0,0); stroke-width: 0.5" x1="146.931949250288" x2="193.068050749712" y1="20" y2="20" />
	<line style="fill-opacity: 1; stroke: rgb(0,0,0); stroke-width: 0.5" x1="146.931949250288" x2="146.931949250288" y1="15" y2="20" />
	<line style="fill-opacity: 1; stroke: rgb(0,0,0); stroke-width: 0.5" x1="193.068050749712" x2="193.068050749712" y1="15" y2="20" />
	<text style="dominant-baseline: baseline; fill: rgb(0,0,0); font: Arial; font-size: 8; text-anchor: end" x="194.5" y="17">500 bases</text>
	<text style="dominant-baseline: baseline; fill: rgb(0,0,0); font: Arial; font-size: 8; text-anchor: end" x="143.931949250288" y="20">chrY</text>
	<line style="fill-opacity: 1; stroke: rgb(0,0,0); stroke-width: 0.5" x1="161.926182237601" x2="161.926182237601" y1="32" y2="37" />
	<text style="dominant-baseline: baseline; fill: rgb(0,0,0); font: Arial; font-size: 8; text-anchor: end" x="184.926182237601" y="32">14056500</text>
	<line style="fill-opacity: 1; stroke: rgb(0,0,0); stroke-width: 0.5" x1="208.062283737024" x2="208.062283737024" y1="32" y2="37" />
	<text style="dominant-baseline: baseline; fill: rgb(0,0,0); font: Arial; font-size: 8; text-anchor: end" x="231.062283737024" y="32">14057000</text>
	<marker id="arrow_t12" markerHeight="4" markerWidth="4" orient="auto" refX="2" refY="2">
		<path d="M0,0 L4,2 0,4" id="arrow_t12_path" style="fill-opacity: 0; stroke: rgb(29,32,136); stroke-width: 0.5" />
	</marker>
	<rect height="4.5" style="fill: rgb(29,32,136); fill-opacity: 1; stroke: black; stroke-opacity: 1; stroke-width: 0" width="15.2249134948097" x="136.735870818916" y="50.25" />
	<rect height="9" style="fill: rgb(29,32,136); fill-opacity: 1; stroke: black; stroke-opacity: 1; stroke-width: 0" width="9.5040369088812" x="142.456747404844" y="48" />
	<rect height="4.5" style="fill: rgb(29,32,136); fill-opacity: 1; stroke: black; stroke-opacity: 1; stroke-width: 0" width="34.6020761245675" x="169.677047289504" y="50.25" />
	<rect height="9" style="fill: rgb(29,32,136); fill-opacity: 1; stroke: black; stroke-opacity: 1; stroke-width: 0" width="25.4671280276817" x="169.677047289504" y="48" />
	<text style="dominant-baseline: hanging; fill: rgb(29,32,136); font: Arial; font-size: 8; text-anchor: end" x="127" y="49">VCY1B</text>
	<line style="fill-opacity: 0; stroke: rgb(29,32,136); stroke-width: 0.5" x1="136.735870818916" x2="204.279123414072" y1="52.5" y2="52.5" />
	<polyline id="arrowPolyline_VCY1B_1" marker-mid="url(#arrow_t12)" points="136.735870818916,52.5 142.735870818916,52.5 148.735870818916,52.5 154.735870818916,52.5 160.735870818916,52.5 166.735870818916,52.5 172.735870818916,52.5 178.735870818916,52.5 184.735870818916,52.5 190.735870818916,52.5 196.735870818916,52.5 202.735870818916,52.5 " style="fill-opacity: 0; stroke: rgb(29,32,136); stroke-opacity: 0" />
	<line style="fill-opacity: 1; stroke: rgb(29,32,136); stroke-width: 0.5" x1="125" x2="130" y1="48" y2="48" />
	<line style="fill-opacity: 0; stroke: rgb(29,32,136); stroke-width: 0.5" x1="130" x2="130" y1="48" y2="60" />
	<line style="fill-opacity: 0; stroke: rgb(29,32,136); stroke-width: 0.5" x1="125" x2="130" y1="60" y2="60" />
	<text style="dominant-baseline: baseline; fill: rgb(29,32,136); font: Arial; font-size: 8; text-anchor: end" x="201" y="45">refSeq genes</text>
	<marker id="arrow_t2" markerHeight="4" markerWidth="4" orient="auto" refX="2" refY="2">
		<path d="M0,0 L4,2 0,4" id="arrow_t2_path" style="fill-opacity: 0; stroke: rgb(228,26,28); stroke-width: 0.5" />
	</marker>
	<line style="fill-opacity: 0; stroke: rgb(228,26,28); stroke-width: 0.5" x1="125" x2="130" y1="68" y2="68" />
	<line style="fill-opacity: 0; stroke: rgb(228,26,28); stroke-width: 0.5" x1="130" x2="130" y1="68" y2="88" />
	<line style="fill-opacity: 0; stroke: rgb(228,26,28); stroke-width: 0.5" x1="125" x2="130" y1="88" y2="88" />
	<text style="dominant-baseline: hanging; fill: rgb(228,26,28); font: Arial; font-size: 8; text-anchor: end" x="125" y="64.5">-1000000000</text>
	<text style="dominant-baseline: hanging; fill: rgb(228,26,28); font: Arial; font-size: 8; text-anchor: end" x="125" y="84.5">0</text>
	<text style="dominant-baseline: hanging; fill: rgb(228,26,28); font: Arial; font-size: 8; text-anchor: end" x="125" y="73.5">5&apos;-Start</text>
	<marker id="arrow_t3" markerHeight="4" markerWidth="4" orient="auto" refX="2" refY="2">
		<path d="M0,0 L4,2 0,4" id="arrow_t3_path" style="fill-opacity: 0; stroke: rgb(55,126,184); stroke-width: 0.5" />
	</marker>
	<line style="fill-opacity: 0; stroke: rgb(55,126,184); stroke-width: 0.5" x1="125" x2="130" y1="96" y2="96" />
	<line style="fill-opacity: 0; stroke: rgb(55,126,184); stroke-width: 0.5" x1="130" x2="130" y1="96" y2="116" />
	<line style="fill-opacity: 0; stroke: rgb(55,126,184); stroke-width: 0.5" x1="125" x2="130" y1="116" y2="116" />
	<text style="dominant-baseline: hanging; fill: rgb(55,126,184); font: Arial; font-size: 8; text-anchor: end" x="125" y="92.5">-1000000000</text>
	<text style="dominant-baseline: hanging; fill: rgb(55,126,184); font: Arial; font-size: 8; text-anchor: end" x="125" y="112.5">0</text>
	<text style="dominant-baseline: hanging; fill: rgb(55,126,184); font: Arial; font-size: 8; text-anchor: end" x="125" y="101.5">3&apos;-End</text>
	<marker id="arrow_t4" markerHeight="4" markerWidth="4" orient="auto" refX="2" refY="2">
		<path d="M0,0 L4,2 0,4" id="arrow_t4_path" style="fill-opacity: 0; stroke: rgb(255,127,0); stroke-width: 0.5" />
	</marker>
	<line style="fill-opacity: 0; stroke: rgb(255,127,0); stroke-width: 0.5" x1="125" x2="130" y1="124" y2="124" />
	<line style="fill-opacity: 0; stroke: rgb(255,127,0); stroke-width: 0.5" x1="130" x2="130" y1="124" y2="144" />
	<line style="fill-opacity: 0; stroke: rgb(255,127,0); stroke-width: 0.5" x1="125" x2="130" y1="144" y2="144" />
	<text style="dominant-baseline: hanging; fill: rgb(255,127,0); font: Arial; font-size: 8; text-anchor: end" x="125" y="120.5">-1000000000</text>
	<text style="dominant-baseline: hanging; fill: rgb(255,127,0); font: Arial; font-size: 8; text-anchor: end" x="125" y="140.5">0</text>
	<text style="dominant-baseline: hanging; fill: rgb(255,127,0); font: Arial; font-size: 8; text-anchor: end" x="125" y="129.5">Coverage</text>
	<!--
	Generated using the Perl SVG Module V2.84
	by Ronan Oger
	Info: http://www.roitsystems.com/
	-->
</svg>
